<svg width="1200" height="900" viewBox="0 0 1200 900" fill="none" xmlns="http://www.w3.org/2000/svg">
  <defs>
    <linearGradient id="bg" x1="140" y1="64" x2="1026" y2="802" gradientUnits="userSpaceOnUse">
      <stop stop-color="#0A204D"/>
      <stop offset="1" stop-color="#021141"/>
    </linearGradient>
    <linearGradient id="orange" x1="0" y1="0" x2="1" y2="1">
      <stop stop-color="#FF9835"/>
      <stop offset="1" stop-color="#D86500"/>
    </linearGradient>
    <radialGradient id="glow" cx="0" cy="0" r="1" gradientUnits="userSpaceOnUse" gradientTransform="translate(938 166) rotate(136.742) scale(256.828 240.395)">
      <stop stop-color="#E67300" stop-opacity="0.28"/>
      <stop offset="1" stop-color="#E67300" stop-opacity="0"/>
    </radialGradient>
  </defs>

  <rect width="1200" height="900" rx="36" fill="url(#bg)"/>
  <circle cx="938" cy="166" r="230" fill="url(#glow)"/>

  <g opacity="0.08">
    <path d="M74 128H1128" stroke="#D8C6A8" stroke-width="2"/>
    <path d="M74 246H1128" stroke="#D8C6A8" stroke-width="2"/>
    <path d="M74 364H1128" stroke="#D8C6A8" stroke-width="2"/>
    <path d="M74 482H1128" stroke="#D8C6A8" stroke-width="2"/>
    <path d="M74 600H1128" stroke="#D8C6A8" stroke-width="2"/>
    <path d="M74 718H1128" stroke="#D8C6A8" stroke-width="2"/>
  </g>

  <rect x="188" y="126" width="824" height="648" rx="34" fill="#081933" stroke="#D8C6A8" stroke-opacity="0.14" stroke-width="2"/>
  <rect x="188" y="126" width="12" height="648" fill="url(#orange)"/>

  <rect x="244" y="184" width="230" height="532" rx="24" fill="#061942"/>
  <rect x="528" y="184" width="428" height="116" rx="24" fill="#061942"/>
  <rect x="528" y="338" width="428" height="378" rx="24" fill="#061942"/>

  <rect x="274" y="224" width="166" height="16" rx="8" fill="#0E2A59"/>
  <rect x="274" y="264" width="126" height="16" rx="8" fill="#0E2A59"/>
  <rect x="274" y="332" width="166" height="16" rx="8" fill="#0E2A59"/>
  <rect x="274" y="372" width="126" height="16" rx="8" fill="#0E2A59"/>
  <rect x="274" y="440" width="166" height="16" rx="8" fill="#0E2A59"/>
  <rect x="274" y="480" width="126" height="16" rx="8" fill="#0E2A59"/>

  <rect x="562" y="216" width="170" height="20" rx="10" fill="#0E2A59"/>
  <rect x="562" y="252" width="294" height="16" rx="8" fill="#0E2A59"/>
  <rect x="560" y="404" width="140" height="140" rx="26" fill="#0B214B" stroke="#E67300" stroke-opacity="0.18" stroke-width="2"/>
  <rect x="724" y="404" width="140" height="140" rx="26" fill="#0B214B" stroke="#E67300" stroke-opacity="0.18" stroke-width="2"/>
  <rect x="888" y="404" width="140" height="140" rx="26" fill="#0B214B" stroke="#E67300" stroke-opacity="0.18" stroke-width="2"/>

  <circle cx="776" cy="546" r="110" fill="#E67300" fill-opacity="0.12" stroke="#E67300" stroke-opacity="0.22" stroke-width="2"/>
  <rect x="726" y="470" width="100" height="74" rx="18" fill="#F7E6CF"/>
  <rect x="744" y="496" width="64" height="12" rx="6" fill="#E67300" fill-opacity="0.7"/>
  <rect x="754" y="526" width="44" height="10" rx="5" fill="#D8C6A8"/>

  <path d="M674 630C708 590 740 572 776 572C812 572 844 590 878 630" stroke="#FFB15C" stroke-width="14" stroke-linecap="round"/>

  <text x="600" y="694" fill="#FFF8F1" font-family="Arial, Helvetica, sans-serif" font-size="50" font-weight="700" text-anchor="middle">Nothing here yet</text>
  <text x="600" y="744" fill="#D8C6A8" font-family="Arial, Helvetica, sans-serif" font-size="26" text-anchor="middle">Use this illustration for empty dashboards, filtered views,</text>
  <text x="600" y="780" fill="#D8C6A8" font-family="Arial, Helvetica, sans-serif" font-size="26" text-anchor="middle">or first-time admin states.</text>
</svg>
