<svg width="1200" height="1200" viewBox="0 0 1200 1200" fill="none" xmlns="http://www.w3.org/2000/svg">
  <defs>
    <linearGradient id="bg" x1="180" y1="80" x2="980" y2="1060" gradientUnits="userSpaceOnUse">
      <stop stop-color="#0A204D"/>
      <stop offset="1" stop-color="#021141"/>
    </linearGradient>
    <linearGradient id="panel" x1="212" y1="170" x2="970" y2="1010" gradientUnits="userSpaceOnUse">
      <stop stop-color="#102A5E"/>
      <stop offset="1" stop-color="#081933"/>
    </linearGradient>
    <linearGradient id="orange" x1="0" y1="0" x2="1" y2="1">
      <stop stop-color="#FF9835"/>
      <stop offset="1" stop-color="#D86500"/>
    </linearGradient>
    <linearGradient id="cream" x1="0" y1="0" x2="1" y2="1">
      <stop stop-color="#FFF1DD"/>
      <stop offset="1" stop-color="#D8C6A8"/>
    </linearGradient>
    <radialGradient id="glowLeft" cx="0" cy="0" r="1" gradientUnits="userSpaceOnUse" gradientTransform="translate(220 210) rotate(52.8033) scale(300.936 363.747)">
      <stop stop-color="#E67300" stop-opacity="0.42"/>
      <stop offset="1" stop-color="#E67300" stop-opacity="0"/>
    </radialGradient>
    <radialGradient id="glowRight" cx="0" cy="0" r="1" gradientUnits="userSpaceOnUse" gradientTransform="translate(960 990) rotate(-119.011) scale(266.792 321.804)">
      <stop stop-color="#D8C6A8" stop-opacity="0.24"/>
      <stop offset="1" stop-color="#D8C6A8" stop-opacity="0"/>
    </radialGradient>
    <filter id="shadow" x="140" y="130" width="920" height="936" filterUnits="userSpaceOnUse" color-interpolation-filters="sRGB">
      <feFlood flood-opacity="0" result="BackgroundImageFix"/>
      <feColorMatrix in="SourceAlpha" type="matrix" values="0 0 0 0 0 0 0 0 0 0 0 0 0 0 0 0 0 0 127 0" result="hardAlpha"/>
      <feOffset dy="32"/>
      <feGaussianBlur stdDeviation="30"/>
      <feColorMatrix type="matrix" values="0 0 0 0 0.00784314 0 0 0 0 0.0666667 0 0 0 0 0.254902 0 0 0 0.3 0"/>
      <feBlend mode="normal" in2="BackgroundImageFix" result="effect1_dropShadow_1_1"/>
      <feBlend mode="normal" in="SourceGraphic" in2="effect1_dropShadow_1_1" result="shape"/>
    </filter>
  </defs>

  <rect width="1200" height="1200" rx="64" fill="url(#bg)"/>
  <circle cx="220" cy="210" r="280" fill="url(#glowLeft)"/>
  <circle cx="975" cy="990" r="255" fill="url(#glowRight)"/>
  <path d="M168 136H1030" stroke="#D8C6A8" stroke-opacity="0.08" stroke-width="2"/>
  <path d="M168 260H1030" stroke="#D8C6A8" stroke-opacity="0.06" stroke-width="2"/>
  <path d="M168 384H1030" stroke="#D8C6A8" stroke-opacity="0.06" stroke-width="2"/>
  <path d="M168 508H1030" stroke="#D8C6A8" stroke-opacity="0.06" stroke-width="2"/>
  <path d="M168 632H1030" stroke="#D8C6A8" stroke-opacity="0.06" stroke-width="2"/>
  <path d="M168 756H1030" stroke="#D8C6A8" stroke-opacity="0.06" stroke-width="2"/>
  <path d="M168 880H1030" stroke="#D8C6A8" stroke-opacity="0.06" stroke-width="2"/>
  <path d="M280 120V1048" stroke="#D8C6A8" stroke-opacity="0.06" stroke-width="2"/>
  <path d="M436 120V1048" stroke="#D8C6A8" stroke-opacity="0.06" stroke-width="2"/>
  <path d="M592 120V1048" stroke="#D8C6A8" stroke-opacity="0.06" stroke-width="2"/>
  <path d="M748 120V1048" stroke="#D8C6A8" stroke-opacity="0.06" stroke-width="2"/>
  <path d="M904 120V1048" stroke="#D8C6A8" stroke-opacity="0.06" stroke-width="2"/>

  <g filter="url(#shadow)">
    <rect x="200" y="160" width="800" height="816" rx="42" fill="url(#panel)"/>
    <rect x="200" y="160" width="10" height="816" fill="url(#orange)"/>
    <rect x="232" y="196" width="736" height="744" rx="30" stroke="#D8C6A8" stroke-opacity="0.14" stroke-width="2"/>

    <text x="256" y="244" fill="#E67300" font-family="Arial, Helvetica, sans-serif" font-size="24" font-weight="700" letter-spacing="5">LIVE ATTENDANCE</text>
    <text x="256" y="292" fill="#FFF8F1" font-family="Arial, Helvetica, sans-serif" font-size="50" font-weight="700">Biometric Kiosk Overview</text>

    <rect x="792" y="220" width="144" height="50" rx="10" fill="#E67300" fill-opacity="0.12" stroke="#E67300" stroke-opacity="0.3"/>
    <text x="839" y="252" fill="#FFD7AB" font-family="Arial, Helvetica, sans-serif" font-size="18" font-weight="700" text-anchor="middle">LIVE</text>

    <rect x="256" y="332" width="420" height="432" rx="26" fill="#041236" stroke="#D8C6A8" stroke-opacity="0.12" stroke-width="2"/>
    <rect x="282" y="358" width="368" height="380" rx="22" fill="#071A3A"/>
    <rect x="316" y="392" width="300" height="312" rx="22" fill="#0B214B" stroke="#E67300" stroke-opacity="0.18" stroke-width="2"/>
    <rect x="344" y="420" width="244" height="256" rx="20" fill="#021141"/>
    <path d="M364 440H432" stroke="#FFB15C" stroke-width="4" stroke-linecap="round"/>
    <path d="M500 440H568" stroke="#FFB15C" stroke-width="4" stroke-linecap="round"/>
    <path d="M364 656H432" stroke="#FFB15C" stroke-width="4" stroke-linecap="round"/>
    <path d="M500 656H568" stroke="#FFB15C" stroke-width="4" stroke-linecap="round"/>
    <path d="M364 440V508" stroke="#FFB15C" stroke-width="4" stroke-linecap="round"/>
    <path d="M568 440V508" stroke="#FFB15C" stroke-width="4" stroke-linecap="round"/>
    <path d="M364 608V676" stroke="#FFB15C" stroke-width="4" stroke-linecap="round"/>
    <path d="M568 608V676" stroke="#FFB15C" stroke-width="4" stroke-linecap="round"/>
    <path d="M382 548H550" stroke="#FFB15C" stroke-opacity="0.72" stroke-width="3"/>

    <circle cx="466" cy="540" r="74" fill="#E67300" fill-opacity="0.10" stroke="#E67300" stroke-opacity="0.25" stroke-width="2"/>
    <circle cx="466" cy="520" r="34" fill="#F7E6CF"/>
    <path d="M398 626C416 583 437 565 466 565C495 565 516 583 534 626" fill="#F7E6CF"/>

    <rect x="706" y="332" width="230" height="138" rx="22" fill="#071A3A" stroke="#D8C6A8" stroke-opacity="0.12" stroke-width="2"/>
    <text x="732" y="370" fill="#D8C6A8" fill-opacity="0.8" font-family="Arial, Helvetica, sans-serif" font-size="18" font-weight="700" letter-spacing="3">MATCH RATE</text>
    <text x="732" y="428" fill="#FFF8F1" font-family="Arial, Helvetica, sans-serif" font-size="54" font-weight="700">98.4%</text>

    <rect x="706" y="488" width="230" height="138" rx="22" fill="#071A3A" stroke="#D8C6A8" stroke-opacity="0.12" stroke-width="2"/>
    <text x="732" y="526" fill="#D8C6A8" fill-opacity="0.8" font-family="Arial, Helvetica, sans-serif" font-size="18" font-weight="700" letter-spacing="3">LIVENESS</text>
    <text x="732" y="584" fill="#FFCF8E" font-family="Arial, Helvetica, sans-serif" font-size="42" font-weight="700">VERIFIED</text>

    <rect x="706" y="644" width="230" height="188" rx="22" fill="#071A3A" stroke="#D8C6A8" stroke-opacity="0.12" stroke-width="2"/>
    <text x="732" y="682" fill="#D8C6A8" fill-opacity="0.8" font-family="Arial, Helvetica, sans-serif" font-size="18" font-weight="700" letter-spacing="3">TODAY</text>
    <rect x="732" y="716" width="178" height="24" rx="12" fill="#0D2A59"/>
    <rect x="732" y="716" width="140" height="24" rx="12" fill="url(#orange)"/>
    <text x="732" y="778" fill="#FFF8F1" font-family="Arial, Helvetica, sans-serif" font-size="24" font-weight="700">341 Clock-ins</text>
    <text x="732" y="814" fill="#D8C6A8" font-family="Arial, Helvetica, sans-serif" font-size="20">12 active kiosks</text>

    <rect x="256" y="790" width="680" height="112" rx="22" fill="#071A3A" stroke="#D8C6A8" stroke-opacity="0.12" stroke-width="2"/>
    <text x="286" y="828" fill="#D8C6A8" fill-opacity="0.8" font-family="Arial, Helvetica, sans-serif" font-size="18" font-weight="700" letter-spacing="3">PAYROLL READINESS</text>
    <g>
      <rect x="286" y="850" width="58" height="22" rx="11" fill="url(#orange)"/>
      <rect x="354" y="836" width="58" height="36" rx="11" fill="url(#orange)"/>
      <rect x="422" y="820" width="58" height="52" rx="11" fill="url(#orange)"/>
      <rect x="490" y="844" width="58" height="28" rx="11" fill="url(#orange)"/>
      <rect x="558" y="804" width="58" height="68" rx="11" fill="url(#orange)"/>
      <rect x="626" y="826" width="58" height="46" rx="11" fill="url(#orange)"/>
      <rect x="694" y="792" width="58" height="80" rx="11" fill="url(#orange)"/>
    </g>
    <text x="792" y="844" fill="#FFF8F1" font-family="Arial, Helvetica, sans-serif" font-size="28" font-weight="700">Export status</text>
    <text x="792" y="880" fill="#FFCF8E" font-family="Arial, Helvetica, sans-serif" font-size="24" font-weight="700">Ready for payroll</text>
  </g>
</svg>
